<svg version="1.1" id="Layer_1" xmlns="http://www.w3.org/2000/svg" xmlns:xlink="http://www.w3.org/1999/xlink" x="0px" y="0px"
	 width="100%" viewBox="0 0 1200 1200" enable-background="new 0 0 1200 1200" xml:space="preserve">
<path fill="#D9D9D9" opacity="1.000000" stroke="none" 
	d="
M670.000000,1201.000000 
	C446.666656,1201.000000 223.833328,1201.000000 1.000000,1201.000000 
	C1.000000,801.000000 1.000000,401.000000 1.000000,1.000000 
	C401.000000,1.000000 801.000000,1.000000 1201.000000,1.000000 
	C1201.000000,401.000000 1201.000000,801.000000 1201.000000,1201.000000 
	C1024.166626,1201.000000 847.333313,1201.000000 670.000000,1201.000000 
M682.132996,640.237915 
	C685.180054,635.462341 688.262451,630.708923 691.268311,625.907593 
	C709.660706,596.529663 718.789612,564.660461 714.798340,530.006958 
	C711.168762,498.493195 695.912109,473.312164 668.948669,456.188141 
	C628.995850,430.814880 578.248230,433.443939 540.677734,462.411194 
	C537.124390,465.150848 534.918518,465.304474 531.315979,462.494415 
	C506.742828,443.326782 478.374329,437.118927 448.011139,440.283997 
	C424.136414,442.772705 403.471497,452.860168 386.194672,469.962646 
	C366.837402,489.124573 357.343842,512.463379 356.114594,539.209229 
	C354.819641,567.386047 362.411743,593.588074 375.955261,618.118958 
	C380.261353,625.918396 385.165649,633.387634 390.410278,642.018555 
	C382.083099,642.018555 374.615204,642.018555 366.061768,642.018555 
	C367.806244,644.771362 368.808167,646.439331 369.893097,648.051392 
	C386.821686,673.205322 403.684204,698.404419 420.785614,723.440430 
	C423.181610,726.948181 422.996429,729.292603 420.684845,732.683716 
	C403.607513,757.736145 386.727020,782.922852 369.813080,808.086365 
	C368.691437,809.755127 367.803131,811.580688 366.517822,813.840454 
	C523.395142,813.840454 679.292480,813.840454 835.930420,813.840454 
	C834.694580,811.820374 833.825562,810.275818 832.840820,808.808838 
	C815.755859,783.356995 798.733093,757.862671 781.472229,732.530457 
	C779.089478,729.033508 779.277466,726.722717 781.580811,723.336731 
	C798.728394,698.128967 815.666870,672.778931 832.659302,647.465698 
	C833.721252,645.883789 834.684082,644.235352 836.348816,641.566406 
	C820.781372,641.566406 806.426270,641.566406 791.520203,641.566406 
	C792.070862,639.190063 792.357849,637.581665 792.816833,636.023926 
	C810.979370,574.384033 829.290710,512.787476 847.223999,451.081055 
	C850.908081,438.404572 856.715149,426.179565 856.108582,412.394989 
	C855.766174,404.613586 852.695496,398.486816 846.752625,393.945892 
	C830.157959,381.265808 809.374023,388.609802 803.110107,409.464813 
	C792.955505,443.273438 783.059692,477.159851 773.074219,511.019226 
	C760.643250,553.170532 748.232605,595.327820 735.811462,637.481995 
	C735.105835,639.876770 734.684387,642.031799 731.082520,641.970703 
	C714.757446,641.693481 698.426575,641.752197 682.024170,641.277100 
	C682.024170,641.277100 681.897217,640.877380 682.132996,640.237915 
M1025.416870,611.650269 
	C1027.724365,600.294617 1022.872375,591.656311 1015.153442,583.955872 
	C982.836914,551.716919 950.583740,519.414368 918.291931,487.150635 
	C916.881897,485.741852 915.380432,484.408478 913.817261,483.171753 
	C900.093750,472.313873 881.132874,476.275787 872.891052,491.697174 
	C867.207581,502.331604 869.324097,514.764526 878.672058,524.143188 
	C904.545959,550.102112 930.493469,575.987549 956.401733,601.912231 
	C957.756714,603.268066 959.017273,604.718323 961.104919,606.968811 
	C959.032837,608.550720 957.277466,609.603882 955.870911,611.006714 
	C930.510742,636.301392 905.206177,661.651794 879.857605,686.958069 
	C872.046387,694.756287 867.765259,703.802795 870.706665,714.925293 
	C876.325684,736.173401 900.955811,742.393066 916.939026,726.494080 
	C950.482971,693.127014 983.921204,659.651978 1017.138306,625.960571 
	C1020.709961,622.337891 1022.535828,616.994019 1025.416870,611.650269 
M194.167343,576.667358 
	C191.110138,579.736755 187.926254,582.691162 185.017761,585.895508 
	C172.523773,599.660095 172.895706,614.210510 186.037292,627.381958 
	C218.637100,660.055786 251.250809,692.715759 283.885101,725.355103 
	C285.763245,727.233459 287.740631,729.067566 289.900269,730.600464 
	C302.731201,739.708435 321.208771,735.342346 328.699554,721.514404 
	C335.098419,709.702209 332.947662,697.844116 322.197571,687.057556 
	C296.791077,661.564819 271.329285,636.127136 245.819351,610.738098 
	C244.435089,609.360352 242.406235,608.630371 240.373672,607.417664 
	C243.174576,604.467285 244.497375,603.009949 245.887146,601.619507 
	C271.801880,575.692322 297.797394,549.845398 323.616028,523.822937 
	C337.343872,509.986694 334.193481,489.067810 317.283112,479.970520 
	C306.475922,474.156586 294.128815,476.736206 283.749542,487.101746 
	C254.038651,516.773438 224.359283,546.476624 194.167343,576.667358 
z"/>
<path fill="#F76F73" opacity="1.000000" stroke="none" 
	d="
M682.097839,641.689941 
	C698.426575,641.752197 714.757446,641.693481 731.082520,641.970703 
	C734.684387,642.031799 735.105835,639.876770 735.811462,637.481995 
	C748.232605,595.327820 760.643250,553.170532 773.074219,511.019226 
	C783.059692,477.159851 792.955505,443.273438 803.110107,409.464813 
	C809.374023,388.609802 830.157959,381.265808 846.752625,393.945892 
	C852.695496,398.486816 855.766174,404.613586 856.108582,412.394989 
	C856.715149,426.179565 850.908081,438.404572 847.223999,451.081055 
	C829.290710,512.787476 810.979370,574.384033 792.816833,636.023926 
	C792.357849,637.581665 792.070862,639.190063 791.520203,641.566406 
	C806.426270,641.566406 820.781372,641.566406 836.348816,641.566406 
	C834.684082,644.235352 833.721252,645.883789 832.659302,647.465698 
	C815.666870,672.778931 798.728394,698.128967 781.580811,723.336731 
	C779.277466,726.722717 779.089478,729.033508 781.472229,732.530457 
	C798.733093,757.862671 815.755859,783.356995 832.840820,808.808838 
	C833.825562,810.275818 834.694580,811.820374 835.930420,813.840454 
	C679.292480,813.840454 523.395142,813.840454 366.517822,813.840454 
	C367.803131,811.580688 368.691437,809.755127 369.813080,808.086365 
	C386.727020,782.922852 403.607513,757.736145 420.684845,732.683716 
	C422.996429,729.292603 423.181610,726.948181 420.785614,723.440430 
	C403.684204,698.404419 386.821686,673.205322 369.893097,648.051392 
	C368.808167,646.439331 367.806244,644.771362 366.061768,642.018555 
	C374.615204,642.018555 382.083099,642.018555 390.410278,642.018555 
	C385.165649,633.387634 380.261353,625.918396 375.955261,618.118958 
	C362.411743,593.588074 354.819641,567.386047 356.114594,539.209229 
	C357.343842,512.463379 366.837402,489.124573 386.194672,469.962646 
	C403.471497,452.860168 424.136414,442.772705 448.011139,440.283997 
	C478.374329,437.118927 506.742828,443.326782 531.315979,462.494415 
	C534.918518,465.304474 537.124390,465.150848 540.677734,462.411194 
	C578.248230,433.443939 628.995850,430.814880 668.948669,456.188141 
	C695.912109,473.312164 711.168762,498.493195 714.798340,530.006958 
	C718.789612,564.660461 709.660706,596.529663 691.268311,625.907593 
	C688.262451,630.708923 685.180054,635.462341 681.872803,640.671204 
	C681.774353,641.299683 681.936096,641.494812 682.097839,641.689941 
M473.521454,690.381104 
	C489.105225,718.101257 504.708099,745.810791 520.250549,773.554077 
	C522.412476,777.413025 524.851868,780.095215 529.902100,780.046448 
	C534.768738,779.999329 537.077393,777.340027 539.089417,773.657227 
	C549.067383,755.393250 559.063660,737.139221 569.081360,718.897034 
	C574.400330,709.211304 579.775879,699.556702 585.125916,689.888000 
	C585.500610,689.988708 585.875305,690.089417 586.250000,690.190186 
	C586.250000,726.699280 586.250000,763.208435 586.250000,800.110718 
	C590.148743,800.110718 593.492554,799.822754 596.766296,800.178894 
	C601.554749,800.700012 602.945129,798.981995 602.924561,794.136658 
	C602.742798,751.323486 602.823242,708.509216 602.808228,665.695312 
	C602.807617,663.924561 602.629822,662.153870 602.513855,659.998169 
	C597.527649,659.998169 593.036377,660.231689 588.581787,659.928040 
	C584.663086,659.660889 582.514282,661.344910 580.713379,664.642456 
	C567.704224,688.462158 554.539551,712.196838 541.477600,735.987793 
	C537.451660,743.320679 533.592041,750.744812 529.853516,757.757019 
	C512.182800,726.165649 494.568420,694.633789 476.857422,663.156372 
	C476.118774,661.843567 474.527222,660.214539 473.249634,660.138733 
	C467.670807,659.807739 462.061127,659.996338 456.460449,659.996338 
	C456.460449,707.074646 456.460449,753.422729 456.460449,800.108215 
	C460.736816,800.108215 464.569244,799.917358 468.373352,800.163879 
	C471.912933,800.393311 472.955627,799.012268 472.928375,795.567566 
	C472.793884,778.576355 472.964508,761.582825 472.843567,744.591370 
	C472.714355,726.446899 472.379608,708.303772 472.597015,690.019226 
	C472.597015,690.019226 473.058594,689.875732 473.521454,690.381104 
M661.105469,551.362366 
	C661.071350,547.864380 660.994263,544.366211 661.010620,540.868469 
	C661.080688,525.885498 655.168945,513.673462 643.540466,504.409943 
	C622.891479,487.960419 592.914673,489.841064 571.517029,507.028870 
	C565.332397,511.996704 560.349487,518.432861 554.549500,523.914307 
	C547.169983,530.888489 538.278748,534.296692 528.579651,530.337463 
	C522.960632,528.043823 517.266113,524.249023 513.408569,519.625488 
	C498.676056,501.967438 480.724548,492.400513 457.326813,493.964081 
	C437.886414,495.263245 423.359558,504.091766 414.975006,521.766357 
	C406.365540,539.914917 409.519318,558.279297 416.127167,576.104614 
	C425.271667,600.772949 441.746826,620.736633 459.110657,639.966003 
	C460.294708,641.277222 462.935089,641.798584 464.899994,641.802734 
	C512.055176,641.901672 559.210876,641.933350 606.365417,641.735107 
	C608.958923,641.724243 612.231384,640.272766 614.022522,638.385742 
	C627.022461,624.689758 638.467468,609.761108 647.790039,593.298218 
	C655.002258,580.562073 659.959167,567.044922 661.105469,551.362366 
M684.881165,799.664917 
	C707.926331,805.205627 729.241821,800.680176 749.301147,788.668396 
	C751.991516,787.057312 753.137817,785.037842 753.102417,781.770264 
	C752.938171,766.606018 753.042480,751.439087 753.012024,736.273132 
	C753.009460,735.009888 752.719299,733.747192 752.519348,732.134094 
	C739.055176,732.134094 725.916138,732.094543 712.778259,732.202881 
	C711.624390,732.212463 709.961609,732.874451 709.413025,733.770752 
	C705.919983,739.477295 710.058105,746.875671 716.659485,746.924438 
	C722.926147,746.970825 729.193359,746.934448 735.925110,746.934448 
	C735.925110,756.820129 736.032593,765.952148 735.802185,775.075684 
	C735.769897,776.353638 734.355835,778.161499 733.116516,778.757751 
	C719.261169,785.423462 704.651245,788.328979 689.568298,784.639404 
	C667.942993,779.349304 654.876160,765.615967 650.486633,743.445679 
	C647.083862,726.259216 649.448730,710.182129 658.999329,695.687805 
	C671.924438,676.072144 695.687500,672.301147 716.840027,677.593140 
	C723.956055,679.373535 730.549011,683.427429 737.211548,686.779114 
	C742.550293,689.464844 744.154175,689.274170 747.487549,684.214050 
	C748.220703,683.101074 748.817505,681.881958 749.655518,680.857727 
	C751.688416,678.373108 751.304993,676.208984 748.762695,674.531067 
	C743.361206,670.965820 738.077026,667.145752 732.374695,664.129700 
	C720.519348,657.859131 707.506287,658.927124 694.691162,658.987854 
	C677.905518,659.067444 663.342163,665.054810 651.210754,676.356323 
	C634.852966,691.594971 629.506653,711.147583 629.955994,732.959290 
	C630.645081,766.411316 651.524475,792.291687 684.881165,799.664917 
z"/>
<path fill="#F76F73" opacity="1.000000" stroke="none" 
	d="
M1025.294189,612.049438 
	C1022.535828,616.994019 1020.709961,622.337891 1017.138306,625.960571 
	C983.921204,659.651978 950.482971,693.127014 916.939026,726.494080 
	C900.955811,742.393066 876.325684,736.173401 870.706665,714.925293 
	C867.765259,703.802795 872.046387,694.756287 879.857605,686.958069 
	C905.206177,661.651794 930.510742,636.301392 955.870911,611.006714 
	C957.277466,609.603882 959.032837,608.550720 961.104919,606.968811 
	C959.017273,604.718323 957.756714,603.268066 956.401733,601.912231 
	C930.493469,575.987549 904.545959,550.102112 878.672058,524.143188 
	C869.324097,514.764526 867.207581,502.331604 872.891052,491.697174 
	C881.132874,476.275787 900.093750,472.313873 913.817261,483.171753 
	C915.380432,484.408478 916.881897,485.741852 918.291931,487.150635 
	C950.583740,519.414368 982.836914,551.716919 1015.153442,583.955872 
	C1022.872375,591.656311 1027.724365,600.294617 1025.294189,612.049438 
z"/>
<path fill="#F76F73" opacity="1.000000" stroke="none" 
	d="
M194.417419,576.417419 
	C224.359283,546.476624 254.038651,516.773438 283.749542,487.101746 
	C294.128815,476.736206 306.475922,474.156586 317.283112,479.970520 
	C334.193481,489.067810 337.343872,509.986694 323.616028,523.822937 
	C297.797394,549.845398 271.801880,575.692322 245.887146,601.619507 
	C244.497375,603.009949 243.174576,604.467285 240.373672,607.417664 
	C242.406235,608.630371 244.435089,609.360352 245.819351,610.738098 
	C271.329285,636.127136 296.791077,661.564819 322.197571,687.057556 
	C332.947662,697.844116 335.098419,709.702209 328.699554,721.514404 
	C321.208771,735.342346 302.731201,739.708435 289.900269,730.600464 
	C287.740631,729.067566 285.763245,727.233459 283.885101,725.355103 
	C251.250809,692.715759 218.637100,660.055786 186.037292,627.381958 
	C172.895706,614.210510 172.523773,599.660095 185.017761,585.895508 
	C187.926254,582.691162 191.110138,579.736755 194.417419,576.417419 
z"/>
<path fill="#E1BEBD" opacity="1.000000" stroke="none" 
	d="
M682.061035,641.483521 
	C681.936096,641.494812 681.774353,641.299683 681.754944,640.990967 
	C681.897217,640.877380 682.024170,641.277100 682.061035,641.483521 
z"/>
<path fill="#D9D9D9" opacity="1.000000" stroke="none" 
	d="
M661.117798,551.840820 
	C659.959167,567.044922 655.002258,580.562073 647.790039,593.298218 
	C638.467468,609.761108 627.022461,624.689758 614.022522,638.385742 
	C612.231384,640.272766 608.958923,641.724243 606.365417,641.735107 
	C559.210876,641.933350 512.055176,641.901672 464.899994,641.802734 
	C462.935089,641.798584 460.294708,641.277222 459.110657,639.966003 
	C441.746826,620.736633 425.271667,600.772949 416.127167,576.104614 
	C409.519318,558.279297 406.365540,539.914917 414.975006,521.766357 
	C423.359558,504.091766 437.886414,495.263245 457.326813,493.964081 
	C480.724548,492.400513 498.676056,501.967438 513.408569,519.625488 
	C517.266113,524.249023 522.960632,528.043823 528.579651,530.337463 
	C538.278748,534.296692 547.169983,530.888489 554.549500,523.914307 
	C560.349487,518.432861 565.332397,511.996704 571.517029,507.028870 
	C592.914673,489.841064 622.891479,487.960419 643.540466,504.409943 
	C655.168945,513.673462 661.080688,525.885498 661.010620,540.868469 
	C660.994263,544.366211 661.071350,547.864380 661.117798,551.840820 
z"/>
<path fill="#D9D8D8" opacity="1.000000" stroke="none" 
	d="
M472.134613,690.160095 
	C472.379608,708.303772 472.714355,726.446899 472.843567,744.591370 
	C472.964508,761.582825 472.793884,778.576355 472.928375,795.567566 
	C472.955627,799.012268 471.912933,800.393311 468.373352,800.163879 
	C464.569244,799.917358 460.736816,800.108215 456.460449,800.108215 
	C456.460449,753.422729 456.460449,707.074646 456.460449,659.996338 
	C462.061127,659.996338 467.670807,659.807739 473.249634,660.138733 
	C474.527222,660.214539 476.118774,661.843567 476.857422,663.156372 
	C494.568420,694.633789 512.182800,726.165649 529.853516,757.757019 
	C533.592041,750.744812 537.451660,743.320679 541.477600,735.987793 
	C554.539551,712.196838 567.704224,688.462158 580.713379,664.642456 
	C582.514282,661.344910 584.663086,659.660889 588.581787,659.928040 
	C593.036377,660.231689 597.527649,659.998169 602.513855,659.998169 
	C602.629822,662.153870 602.807617,663.924561 602.808228,665.695312 
	C602.823242,708.509216 602.742798,751.323486 602.924561,794.136658 
	C602.945129,798.981995 601.554749,800.700012 596.766296,800.178894 
	C593.492554,799.822754 590.148743,800.110718 586.250000,800.110718 
	C586.250000,763.208435 586.250000,726.699280 586.250000,690.190186 
	C585.875305,690.089417 585.500610,689.988708 585.125916,689.888000 
	C579.775879,699.556702 574.400330,709.211304 569.081360,718.897034 
	C559.063660,737.139221 549.067383,755.393250 539.089417,773.657227 
	C537.077393,777.340027 534.768738,779.999329 529.902100,780.046448 
	C524.851868,780.095215 522.412476,777.413025 520.250549,773.554077 
	C504.708099,745.810791 489.105225,718.101257 473.262146,689.898804 
	C472.793030,689.231140 472.583252,689.045715 472.373474,688.860291 
	C472.293884,689.293579 472.214233,689.726807 472.134613,690.160095 
z"/>
<path fill="#D9D8D8" opacity="1.000000" stroke="none" 
	d="
M684.483643,799.542236 
	C651.524475,792.291687 630.645081,766.411316 629.955994,732.959290 
	C629.506653,711.147583 634.852966,691.594971 651.210754,676.356323 
	C663.342163,665.054810 677.905518,659.067444 694.691162,658.987854 
	C707.506287,658.927124 720.519348,657.859131 732.374695,664.129700 
	C738.077026,667.145752 743.361206,670.965820 748.762695,674.531067 
	C751.304993,676.208984 751.688416,678.373108 749.655518,680.857727 
	C748.817505,681.881958 748.220703,683.101074 747.487549,684.214050 
	C744.154175,689.274170 742.550293,689.464844 737.211548,686.779114 
	C730.549011,683.427429 723.956055,679.373535 716.840027,677.593140 
	C695.687500,672.301147 671.924438,676.072144 658.999329,695.687805 
	C649.448730,710.182129 647.083862,726.259216 650.486633,743.445679 
	C654.876160,765.615967 667.942993,779.349304 689.568298,784.639404 
	C704.651245,788.328979 719.261169,785.423462 733.116516,778.757751 
	C734.355835,778.161499 735.769897,776.353638 735.802185,775.075684 
	C736.032593,765.952148 735.925110,756.820129 735.925110,746.934448 
	C729.193359,746.934448 722.926147,746.970825 716.659485,746.924438 
	C710.058105,746.875671 705.919983,739.477295 709.413025,733.770752 
	C709.961609,732.874451 711.624390,732.212463 712.778259,732.202881 
	C725.916138,732.094543 739.055176,732.134094 752.519348,732.134094 
	C752.719299,733.747192 753.009460,735.009888 753.012024,736.273132 
	C753.042480,751.439087 752.938171,766.606018 753.102417,781.770264 
	C753.137817,785.037842 751.991516,787.057312 749.301147,788.668396 
	C729.241821,800.680176 707.926331,805.205627 684.483643,799.542236 
z"/>
<path fill="#E2B5B6" opacity="1.000000" stroke="none" 
	d="
M472.365814,690.089661 
	C472.214233,689.726807 472.293884,689.293579 472.373474,688.860291 
	C472.583252,689.045715 472.793030,689.231140 473.030701,689.646118 
	C473.058594,689.875732 472.597015,690.019226 472.365814,690.089661 
z"/>
</svg>